<svg width="50" height="50" viewBox="0 0 50 50" fill="none" xmlns="http://www.w3.org/2000/svg">
<path fill-rule="evenodd" clip-rule="evenodd" d="M25.0588 0C11.3511 0 0.248535 11.4705 0.248535 25.6323C0.248535 36.9747 7.35047 46.5547 17.2125 49.951C18.4531 50.1753 18.9182 49.4063 18.9182 48.7335C18.9182 48.1247 18.8872 46.1062 18.8872 43.9595C12.6537 45.145 11.041 42.3895 10.5448 40.9477C10.2657 40.2107 9.05617 37.9359 8.00174 37.3271C7.13338 36.8465 5.89287 35.661 7.97072 35.629C9.92453 35.5969 11.3201 37.4873 11.7853 38.2563C14.0182 42.1332 17.5847 41.0438 19.0113 40.3709C19.2284 38.7048 19.8796 37.5834 20.5929 36.9426C15.0727 36.3018 9.30428 34.091 9.30428 24.2866C9.30428 21.4991 10.2657 19.1922 11.8473 17.398C11.5992 16.7571 10.7309 14.1298 12.0954 10.6054C12.0954 10.6054 14.1733 9.93253 18.9182 13.2327C20.9031 12.656 23.0119 12.3676 25.1208 12.3676C27.2297 12.3676 29.3386 12.656 31.3234 13.2327C36.0683 9.90049 38.1462 10.6054 38.1462 10.6054C39.5107 14.1298 38.6424 16.7571 38.3943 17.398C39.9759 19.1922 40.9373 21.4671 40.9373 24.2866C40.9373 34.1231 35.1379 36.3018 29.6177 36.9426C30.517 37.7436 31.2924 39.2816 31.2924 41.6846C31.2924 45.1129 31.2613 47.8684 31.2613 48.7335C31.2613 49.4063 31.7265 50.2074 32.967 49.951C37.8923 48.2331 42.172 44.9627 45.204 40.6003C48.236 36.2378 49.8675 31.0029 49.869 25.6323C49.869 11.4705 38.7664 0 25.0588 0Z" fill="white"/>
</svg>
