<svg width="50" height="50" viewBox="0 0 50 50" fill="none" xmlns="http://www.w3.org/2000/svg">
<path fill-rule="evenodd" clip-rule="evenodd" d="M14.5817 0.15C17.2273 0.0272727 18.0709 0 24.8102 0C31.5496 0 32.3932 0.0295454 35.0366 0.15C37.68 0.270454 39.4844 0.695455 41.0632 1.31136C42.7165 1.94091 44.2164 2.925 45.4569 4.19773C46.7199 5.44545 47.6943 6.95455 48.3168 8.62273C48.9303 10.2136 49.3498 12.0318 49.4716 14.6909C49.5934 17.3614 49.6205 18.2114 49.6205 25C49.6205 31.7909 49.5912 32.6409 49.4716 35.3068C49.3521 37.9659 48.9303 39.7841 48.3168 41.375C47.6943 43.0434 46.7183 44.555 45.4569 45.8045C44.2164 47.0773 42.7165 48.0591 41.0632 48.6864C39.4844 49.3045 37.68 49.7273 35.0411 49.85C32.3932 49.9727 31.5496 50 24.8102 50C18.0709 50 17.2273 49.9705 14.5817 49.85C11.9428 49.7295 10.1384 49.3045 8.55954 48.6864C6.90384 48.059 5.40372 47.0756 4.16361 45.8045C2.9014 44.5561 1.92463 43.0452 1.30141 41.3773C0.690176 39.7864 0.270657 37.9682 0.148861 35.3091C0.0270657 32.6386 0 31.7886 0 25C0 18.2091 0.0293212 17.3591 0.148861 14.6955C0.268402 12.0318 0.690176 10.2136 1.30141 8.62273C1.92555 6.95473 2.90307 5.44389 4.16587 4.19545C5.40421 2.92387 6.90282 1.93964 8.55728 1.31136C10.1361 0.695455 11.9405 0.272727 14.5794 0.15H14.5817ZM34.8358 4.65C32.2195 4.52955 31.4346 4.50455 24.8102 4.50455C18.1859 4.50455 17.401 4.52955 14.7847 4.65C12.3645 4.76136 11.0518 5.16818 10.1767 5.51136C9.01965 5.96591 8.19189 6.50455 7.32353 7.37955C6.50039 8.18648 5.8669 9.16882 5.46953 10.2545C5.12895 11.1364 4.72522 12.4591 4.61471 14.8977C4.49517 17.5341 4.47036 18.325 4.47036 25C4.47036 31.675 4.49517 32.4659 4.61471 35.1023C4.72522 37.5409 5.12895 38.8636 5.46953 39.7455C5.8665 40.8295 6.50029 41.8136 7.32353 42.6205C8.12423 43.45 9.10085 44.0886 10.1767 44.4886C11.0518 44.8318 12.3645 45.2386 14.7847 45.35C17.401 45.4705 18.1837 45.4955 24.8102 45.4955C31.4368 45.4955 32.2195 45.4705 34.8358 45.35C37.256 45.2386 38.5687 44.8318 39.4438 44.4886C40.6008 44.0341 41.4286 43.4955 42.297 42.6205C43.1202 41.8136 43.754 40.8295 44.151 39.7455C44.4915 38.8636 44.8953 37.5409 45.0058 35.1023C45.1253 32.4659 45.1501 31.675 45.1501 25C45.1501 18.325 45.1253 17.5341 45.0058 14.8977C44.8953 12.4591 44.4915 11.1364 44.151 10.2545C43.6999 9.08864 43.1653 8.25455 42.297 7.37955C41.4961 6.55016 40.5212 5.91184 39.4438 5.51136C38.5687 5.16818 37.256 4.76136 34.8358 4.65ZM21.6413 32.7068C23.4111 33.4492 25.3817 33.5494 27.2167 32.9903C29.0516 32.4312 30.637 31.2475 31.7021 29.6415C32.7672 28.0354 33.2459 26.1065 33.0564 24.1843C32.8669 22.2621 32.021 20.4658 30.6632 19.1023C29.7976 18.2306 28.751 17.5632 27.5988 17.1481C26.4465 16.7329 25.2172 16.5804 23.9994 16.7014C22.7816 16.8224 21.6056 17.214 20.556 17.848C19.5064 18.482 18.6094 19.3426 17.9295 20.3678C17.2496 21.3931 16.8037 22.5575 16.624 23.7772C16.4443 24.9969 16.5352 26.2416 16.8902 27.4216C17.2452 28.6017 17.8554 29.6877 18.677 30.6016C19.4985 31.5155 20.5109 32.2345 21.6413 32.7068ZM15.7928 15.9136C16.977 14.7204 18.3829 13.7739 19.9301 13.1281C21.4773 12.4823 23.1356 12.1499 24.8102 12.1499C26.4849 12.1499 28.1432 12.4823 29.6904 13.1281C31.2376 13.7739 32.6435 14.7204 33.8276 15.9136C35.0118 17.1069 35.9512 18.5235 36.592 20.0825C37.2329 21.6415 37.5628 23.3125 37.5628 25C37.5628 26.6875 37.2329 28.3585 36.592 29.9175C35.9512 31.4765 35.0118 32.8931 33.8276 34.0864C31.4361 36.4962 28.1924 37.8501 24.8102 37.8501C21.4281 37.8501 18.1844 36.4962 15.7928 34.0864C13.4013 31.6765 12.0577 28.408 12.0577 25C12.0577 21.592 13.4013 18.3235 15.7928 15.9136ZM40.3911 14.0636C40.6845 13.7847 40.9195 13.4493 41.0819 13.0772C41.2444 12.7052 41.3312 12.304 41.3371 11.8976C41.3429 11.4911 41.2678 11.0876 41.1162 10.7109C40.9645 10.3343 40.7394 9.99207 40.4541 9.70463C40.1689 9.4172 39.8293 9.19036 39.4555 9.03754C39.0817 8.88472 38.6812 8.80904 38.2779 8.81496C37.8745 8.82089 37.4764 8.9083 37.1072 9.07204C36.7379 9.23577 36.405 9.47249 36.1282 9.76818C35.5899 10.3432 35.2951 11.1071 35.3066 11.8976C35.318 12.688 35.6347 13.4429 36.1895 14.0019C36.7442 14.5609 37.4934 14.8801 38.2779 14.8916C39.0623 14.9031 39.8204 14.6061 40.3911 14.0636Z" fill="white"/>
</svg>
