<svg width="35" height="28" viewBox="0 0 35 28" fill="none" xmlns="http://www.w3.org/2000/svg">
<path d="M33.75 0H1.25C0.558594 0 0 0.558594 0 1.25V26.25C0 26.9414 0.558594 27.5 1.25 27.5H33.75C34.4414 27.5 35 26.9414 35 26.25V1.25C35 0.558594 34.4414 0 33.75 0ZM30.5938 4.25391L18.2695 13.8438C17.9648 14.082 17.5391 14.082 17.2344 13.8438L4.90625 4.25391C4.85978 4.21804 4.82569 4.16853 4.80877 4.11232C4.79185 4.05611 4.79294 3.99602 4.81189 3.94046C4.83084 3.8849 4.8667 3.83666 4.91444 3.8025C4.96219 3.76835 5.01942 3.74999 5.07812 3.75H30.4219C30.4806 3.74999 30.5378 3.76835 30.5856 3.8025C30.6333 3.83666 30.6692 3.8849 30.6881 3.94046C30.7071 3.99602 30.7082 4.05611 30.6912 4.11232C30.6743 4.16853 30.6402 4.21804 30.5938 4.25391Z" fill="white"/>
</svg>
