<svg width="38" height="34" viewBox="0 0 38 34" fill="none" xmlns="http://www.w3.org/2000/svg">
<path d="M29.7592 11.737C35.2592 2.29947 23.9467 -3.82553 9.57172 2.73697C0.759223 6.79947 -5.36578 19.2995 6.88422 30.0495C15.5717 37.6745 37.5092 33.362 37.5092 24.612C37.5092 14.9245 23.9467 21.612 29.7592 11.737ZM32.8217 27.112C31.0717 28.612 28.3217 28.612 26.5717 27.112C24.8217 25.612 24.8217 24.2995 26.5717 22.7995C28.3217 21.2995 31.0717 21.2995 32.8217 22.7995C34.5717 24.2995 34.5092 25.612 32.8217 27.112Z" fill="#F6C799"/>
<path d="M19.5092 25.1745C17.5717 23.6745 14.5092 23.6745 12.5717 25.1745C10.6342 26.6745 10.6342 29.0495 12.5717 30.5495C14.5092 32.0495 17.5717 32.0495 19.5092 30.5495C21.3842 29.0495 21.3842 26.612 19.5092 25.1745Z" fill="#2CAECE"/>
<path d="M11.0092 17.987C8.88421 16.987 6.00921 17.612 4.50921 19.4245C3.00921 21.237 3.50921 23.487 5.63421 24.487C7.75921 25.487 10.6342 24.862 12.1342 23.0495C13.6342 21.237 13.1342 18.987 11.0092 17.987Z" fill="#FDF516"/>
<path d="M9.38423 9.86196C7.57173 8.86196 4.88423 9.29946 3.50923 10.862C2.07173 12.4245 2.44673 14.487 4.25923 15.4245C6.07173 16.4245 8.75923 15.987 10.1342 14.4245C11.5092 12.862 11.1967 10.862 9.38423 9.86196Z" fill="#FF5555"/>
<path d="M16.5092 3.73698C14.7592 2.73698 12.1967 3.11198 10.8217 4.61198C9.44672 6.11198 9.69672 8.04948 11.5092 9.04948C13.2592 10.0495 15.8217 9.67448 17.1967 8.17448C18.5717 6.67448 18.2592 4.67448 16.5092 3.73698" fill="#83BF4F"/>
<path d="M26.6967 3.04947C25.3217 1.92447 23.0092 1.67447 21.3842 2.42447C19.8217 3.17447 19.6342 4.73697 21.0092 5.86197C22.3842 6.98697 24.6967 7.23697 26.3217 6.48697C27.8842 5.67447 28.0092 4.17447 26.6967 3.04947Z" fill="#9156B7"/>
<path d="M23.7592 23.2995C22.5717 24.612 16.5717 25.7995 16.5717 25.7995C16.5717 25.7995 18.9467 23.612 20.0092 20.0495C20.5092 18.362 22.9467 18.362 24.0092 19.2995C25.0717 20.1745 24.9467 21.987 23.7592 23.2995Z" fill="#947151"/>
<path d="M35.4467 4.67448C36.0717 4.61198 37.2592 5.67448 37.3217 6.23698C37.5092 8.92448 26.2592 18.5495 26.2592 18.5495L24.3842 16.987C24.3842 16.987 32.6967 4.86198 35.4467 4.67448Z" fill="#666666"/>
<path d="M22.7592 18.7995L24.6342 20.362L26.2592 18.5495L24.3842 16.987L22.7592 18.7995Z" fill="#CCCCCC"/>
</svg>
