<svg width="26" height="34" viewBox="0 0 26 34" fill="none" xmlns="http://www.w3.org/2000/svg">
<path d="M2.56849 9.61243C2.09099 6.46743 4.30849 3.64243 7.69598 2.60743C8.29712 2.42364 8.94572 2.47595 9.50963 2.75373C10.0735 3.0315 10.5103 3.51383 10.731 4.10243L11.8185 7.00243C11.9936 7.46896 12.0252 7.97717 11.9094 8.46182C11.7936 8.94647 11.5356 9.38546 11.1685 9.72243L7.93349 12.6849C7.77403 12.8313 7.65521 13.0164 7.58861 13.2223C7.52201 13.4283 7.50991 13.6479 7.55349 13.8599L7.58348 13.9899L7.66098 14.3149C8.0633 15.894 8.6763 17.4118 9.48349 18.8274C10.3628 20.3317 11.4539 21.7016 12.7235 22.8949L12.8235 22.9849C12.985 23.1283 13.1809 23.2273 13.3921 23.2725C13.6032 23.3176 13.8225 23.3073 14.0285 23.2424L18.211 21.9249C18.6863 21.7757 19.1954 21.7719 19.6729 21.914C20.1504 22.0561 20.5746 22.3376 20.891 22.7224L22.871 25.1249C23.696 26.1249 23.596 27.5949 22.6485 28.4774C20.056 30.8949 16.491 31.3899 14.011 29.3974C10.9711 26.9453 8.40837 23.9547 6.45099 20.5749C4.47771 17.1978 3.15964 13.4785 2.56599 9.61243H2.56849ZM10.176 14.0249L12.856 11.5649C13.5906 10.8913 14.1071 10.0134 14.3392 9.04412C14.5712 8.0748 14.5083 7.05823 14.1585 6.12493L13.0735 3.22493C12.6293 2.04055 11.7503 1.07008 10.6155 0.511278C9.48073 -0.0475258 8.17557 -0.152613 6.96599 0.217431C2.75849 1.50493 -0.619015 5.27743 0.0959851 9.98993C0.595985 13.2799 1.74849 17.4649 4.29099 21.8349C6.40276 25.4792 9.16713 28.7037 12.446 31.3474C16.166 34.3349 21.131 33.3149 24.356 30.3099C26.271 28.5249 26.466 25.5599 24.8035 23.5399L22.8235 21.1349C22.1901 20.3661 21.3415 19.8041 20.3865 19.5208C19.4315 19.2375 18.4137 19.2459 17.4635 19.5449L13.991 20.6374C13.0944 19.713 12.3091 18.6869 11.651 17.5799C11.0153 16.4608 10.5199 15.2677 10.176 14.0274V14.0249Z" fill="white"/>
</svg>
