<svg width="40" height="40" viewBox="0 0 40 40" fill="none" xmlns="http://www.w3.org/2000/svg">
<path d="M8.95555 26.73C7.20111 28.4872 6.37111 30.93 6.75 33.2233C9.04333 33.5989 11.4844 32.7678 13.2406 31.0139C14.995 29.2567 15.825 26.8139 15.4461 24.5206C13.1528 24.145 10.7117 24.9761 8.95555 26.73V26.73Z" fill="#FCEA2B"/>
<path d="M17.7628 25.4661C17.656 26.0027 17.3927 26.4957 17.0061 26.8828C16.8179 27.0702 16.6036 27.2297 16.37 27.3561C17.5621 28.9877 18.4461 30.8234 18.9783 32.7728C19.3728 32.4283 19.7511 32.0628 20.1128 31.6794C21.1803 30.5432 22.0873 29.2662 22.8083 27.8839C23.5017 26.5434 24.0143 25.1169 24.3328 23.6417C22.2611 24.7278 20.015 25.3511 17.7628 25.4661V25.4661Z" fill="#61B2E4"/>
<path d="M8.29055 19.8606C7.90722 20.2217 7.54222 20.5994 7.19611 20.9928C9.14695 21.5217 10.9847 22.4027 12.6189 23.5922C12.745 23.3622 12.9022 23.1511 13.0878 22.9656C13.4739 22.5802 13.9652 22.3174 14.5 22.21C14.6167 19.96 15.2422 17.7156 16.3289 15.6467L16.3322 15.6406C14.8563 15.9588 13.4291 16.4712 12.0878 17.1644C10.7049 17.8856 9.42727 18.7927 8.29055 19.8606Z" fill="#92D3F5"/>
<path d="M19.345 11.5261C16.4389 14.4428 14.6967 18.2839 14.4989 22.2111C14.9468 22.1203 15.4102 22.1417 15.8478 22.2733C16.2854 22.405 16.6837 22.6428 17.0072 22.9656C17.3317 23.2901 17.5704 23.6902 17.7018 24.1299C17.8333 24.5696 17.8535 25.035 17.7606 25.4844C21.6917 25.2839 25.5339 23.5383 28.4506 20.6289C32.1794 16.8939 33.9422 11.7028 33.1361 6.82889C32.1645 6.67147 31.1795 6.61321 30.1961 6.655C26.2106 6.81722 22.3017 8.57167 19.345 11.5256V11.5261V11.5261ZM25.0389 11.2317C25.5302 10.7404 26.1966 10.4644 26.8914 10.4644C27.5862 10.4644 28.2526 10.7404 28.7439 11.2317C28.9873 11.4748 29.1805 11.7634 29.3123 12.0812C29.4441 12.399 29.512 12.7396 29.5121 13.0837C29.5122 13.4277 29.4445 13.7684 29.3129 14.0862C29.1813 14.4041 28.9883 14.6929 28.745 14.9361H28.7444C28.249 15.4062 27.5896 15.6643 26.9066 15.6554C26.2237 15.6465 25.5712 15.3713 25.0882 14.8885C24.6051 14.4056 24.3297 13.7533 24.3205 13.0704C24.3113 12.3874 24.569 11.7279 25.0389 11.2322V11.2317Z" fill="#EA5A47"/>
<path d="M14.7433 28.9094C14.2542 29.458 13.6921 29.9369 13.0728 30.3328C11.1339 31.5678 8.78111 31.9072 6.71667 31.2511C6.63333 31.9156 6.64444 32.5794 6.75 33.2233C9.04333 33.5989 11.4844 32.7678 13.2406 31.0133C13.8521 30.398 14.3596 29.6875 14.7433 28.9094V28.9094Z" fill="#F1B31C"/>
<path d="M14.5578 21.4928C14.5394 21.7306 14.5267 21.9683 14.52 22.2056C14.9677 22.1186 15.43 22.1435 15.8657 22.2781C16.3015 22.4127 16.6973 22.6529 17.0179 22.9772C17.3385 23.3016 17.5741 23.7001 17.7036 24.1374C17.8332 24.5747 17.8527 25.0372 17.7606 25.4839C21.6911 25.2833 25.5328 23.5378 28.4494 20.6283C29.2776 19.7927 30.0174 18.874 30.6572 17.8867C29.9072 18.5696 29.0981 19.1846 28.2394 19.7244C24.0406 22.3411 18.965 22.9978 14.5572 21.4928H14.5578V21.4928Z" fill="#D22F27"/>
<path d="M13.355 26.9728C13.8383 26.73 14.3106 26.4628 14.7717 26.1739C16.1346 25.3181 17.3738 24.2798 18.455 23.0878L18.4561 23.0861C19.4985 21.9279 20.3826 20.6367 21.0856 19.2461C21.1195 19.1792 21.1394 19.106 21.1439 19.0311C19.2556 18.6128 12.8961 24.7261 13.355 26.9728V26.9728Z" fill="#61B2E4"/>
<path d="M26.8917 16.3833C25.0717 16.3833 23.5911 14.9033 23.5911 13.0833C23.5911 11.2633 25.0717 9.78444 26.8917 9.78444C28.7117 9.78444 30.1922 11.2644 30.1922 13.0839C30.1922 14.9033 28.7117 16.3833 26.8917 16.3833ZM26.8917 10.8839C26.3084 10.8845 25.7491 11.1165 25.3367 11.5289C24.9242 11.9414 24.6923 12.5006 24.6917 13.0839C24.6923 13.6672 24.9242 14.2264 25.3367 14.6389C25.7491 15.0513 26.3084 15.2833 26.8917 15.2839C27.475 15.2833 28.0342 15.0513 28.4466 14.6389C28.8591 14.2264 29.0911 13.6672 29.0917 13.0839C29.0911 12.5006 28.8591 11.9414 28.4466 11.5289C28.0342 11.1165 27.475 10.8845 26.8917 10.8839V10.8839Z" fill="black"/>
<path d="M11.4739 25.035C10.5339 25.4336 9.67897 26.0088 8.95555 26.7294C7.20111 28.4872 6.37111 30.9294 6.75 33.2228C9.04333 33.5983 11.4844 32.7672 13.2406 31.0133C13.9617 30.2902 14.5375 29.4355 14.9367 28.4956" stroke="black" stroke-width="1.08278" stroke-miterlimit="10" stroke-linecap="round" stroke-linejoin="round"/>
<path d="M8.29055 19.8606C7.90722 20.2217 7.54222 20.5994 7.19611 20.9928C9.14695 21.5217 10.9847 22.4027 12.6189 23.5922C12.745 23.3622 12.9022 23.1511 13.0878 22.9656C13.4739 22.5802 13.9652 22.3174 14.5 22.21C14.6167 19.96 15.2422 17.7156 16.3289 15.6467L16.3322 15.6406C14.8563 15.9588 13.4291 16.4712 12.0878 17.1644C10.7049 17.8856 9.42727 18.7927 8.29055 19.8606ZM8.29055 19.8606V19.8606V19.8606Z" stroke="black" stroke-width="1.08278" stroke-miterlimit="10" stroke-linecap="round" stroke-linejoin="round"/>
<path d="M17.7628 25.4661C17.656 26.0027 17.3927 26.4957 17.0061 26.8828C16.8179 27.0702 16.6036 27.2297 16.37 27.3561C17.5621 28.9877 18.4461 30.8234 18.9783 32.7728C19.3728 32.4283 19.7511 32.0628 20.1128 31.6794C21.1803 30.5432 22.0873 29.2662 22.8083 27.8839C23.5017 26.5434 24.0143 25.1169 24.3328 23.6417C22.2611 24.7278 20.015 25.3511 17.7628 25.4661V25.4661Z" stroke="black" stroke-width="1.08278" stroke-miterlimit="10" stroke-linecap="round" stroke-linejoin="round"/>
<path d="M17.6833 24.0806C17.8333 24.5728 17.8222 25.0206 17.7594 25.4833C21.6906 25.2822 25.5333 23.5367 28.45 20.6267C32.1778 16.8928 33.9411 11.7028 33.1361 6.83C28.2633 6.03222 23.0761 7.79778 19.3456 11.525C16.4389 14.4422 14.6967 18.2828 14.4989 22.2106C15.0141 22.1078 15.5478 22.1538 16.0378 22.3433" stroke="black" stroke-width="1.08278" stroke-miterlimit="10" stroke-linecap="round" stroke-linejoin="round"/>
<path d="M20.5956 18.9978C19.2477 19.6785 17.9961 20.5348 16.8733 21.5444C15.7182 22.5914 14.7118 23.7916 13.8822 25.1117C13.603 25.5566 13.3449 26.0145 13.1089 26.4839" stroke="black" stroke-width="1.08278" stroke-miterlimit="10" stroke-linecap="round" stroke-linejoin="round"/>
</svg>
