<svg width="51" height="50" viewBox="0 0 51 50" fill="none" xmlns="http://www.w3.org/2000/svg">
<path d="M50.1632 5.93091C48.3384 6.93316 46.3781 7.61035 44.3174 7.91645C46.4437 6.33938 48.0345 3.85725 48.7929 0.933223C46.7952 2.40406 44.6088 3.43937 42.3287 3.99414C40.7954 1.9649 38.7645 0.619888 36.5513 0.167923C34.3382 -0.284042 32.0665 0.182327 30.0891 1.49462C28.1116 2.80692 26.5391 4.89172 25.6155 7.42535C24.6919 9.95899 24.469 12.7997 24.9814 15.5064C20.9335 15.2545 16.9735 13.9504 13.3585 11.6787C9.74346 9.40698 6.55421 6.21848 3.9977 2.32012C3.12356 4.18917 2.62093 6.35619 2.62093 8.66407C2.61995 10.7417 3.03272 12.7875 3.8226 14.6199C4.61249 16.4524 5.75507 18.0149 7.14897 19.1687C5.53242 19.1049 3.95153 18.5635 2.53789 17.5895V17.752C2.53772 20.6659 3.35091 23.4902 4.83946 25.7456C6.32801 28.001 8.40024 29.5485 10.7045 30.1257C9.20491 30.6288 7.63267 30.7029 6.10656 30.3424C6.75669 32.8497 8.0231 35.0422 9.72848 36.613C11.4339 38.1838 13.4929 39.0543 15.6172 39.1026C12.011 42.6116 7.55738 44.5149 2.97277 44.5066C2.16065 44.5069 1.34922 44.4481 0.542664 44.3305C5.19631 48.0393 10.6135 50.0076 16.146 50C34.8745 50 45.1128 30.7731 45.1128 14.0979C45.1128 13.5561 45.1019 13.0089 45.0822 12.4672C47.0737 10.682 48.7928 8.47146 50.1588 5.93904L50.1632 5.93091Z" fill="white"/>
</svg>
