<svg width="60" height="60" viewBox="0 0 60 60" fill="none" xmlns="http://www.w3.org/2000/svg">
<path d="M30 60C25.9375 60 22.0508 59.209 18.3398 57.627C14.6289 56.0449 11.4355 53.916 8.75977 51.2402C6.08398 48.5645 3.95508 45.3711 2.37305 41.6602C0.791016 37.9492 0 34.0625 0 30C0 25.9375 0.791016 22.0508 2.37305 18.3398C3.95508 14.6289 6.08398 11.4355 8.75977 8.75977C11.4355 6.08398 14.6289 3.95508 18.3398 2.37305C22.0508 0.791016 25.9375 0 30 0C34.0625 0 37.9492 0.791016 41.6602 2.37305C45.3711 3.95508 48.5645 6.08398 51.2402 8.75977C53.916 11.4355 56.0449 14.6289 57.627 18.3398C59.209 22.0508 60 25.9375 60 30C60 34.0625 59.209 37.9492 57.627 41.6602C56.0449 45.3711 53.916 48.5645 51.2402 51.2402C48.5645 53.916 45.3711 56.0449 41.6602 57.627C37.9492 59.209 34.0625 60 30 60ZM17.168 17.168L14.3555 14.707C13.9258 14.707 13.418 14.7559 12.832 14.8535C12.2461 14.9512 11.7188 15 11.25 15C11.2109 14.9609 10.8594 14.2383 10.1953 12.832C5.89844 17.793 3.75 23.5156 3.75 30C3.75 30.1172 3.75977 30.2734 3.7793 30.4688C3.79883 30.6641 3.80859 30.8008 3.80859 30.8789C4.04297 31.1133 4.61914 31.5527 5.53711 32.1973C6.45508 32.8418 7.10938 33.3594 7.5 33.75H11.25C11.3672 33.6719 11.4746 33.6133 11.5723 33.5742C11.6699 33.5352 11.7773 33.4961 11.8945 33.457C11.5039 33.0273 10.9277 32.3926 10.166 31.5527C9.4043 30.7129 8.82812 30.0977 8.4375 29.707C8.59375 28.8086 8.80859 27.4512 9.08203 25.6348C9.35547 23.8184 9.55078 22.4609 9.66797 21.5625C13.0273 20.1562 15.5273 19.1211 17.168 18.457V17.168ZM28.9453 7.61719C28.3984 7.38281 27.8906 7.16797 27.4219 6.97266C27.3047 6.66016 27.2266 6.42578 27.1875 6.26953C26.9531 7.01172 26.582 8.125 26.0742 9.60938C26.2305 9.64844 26.4551 9.6875 26.748 9.72656C27.041 9.76563 27.2656 9.80469 27.4219 9.84375H28.9453V7.61719ZM28.7109 35.2148C28.5156 35.4102 28.3789 35.5664 28.3008 35.6836C27.832 36.5039 27.168 37.7539 26.3086 39.4336C25.4492 41.1133 24.8047 42.3633 24.375 43.1836C24.9219 44.0039 25.752 45.2539 26.8652 46.9336C27.9785 48.6133 28.8086 49.8633 29.3555 50.6836C34.4336 50.9961 38.2812 51.2305 40.8984 51.3867C40.9766 52.3633 41.2891 53.0273 41.8359 53.3789C45.3906 51.582 48.3984 49.0918 50.8594 45.9082C53.3203 42.7246 54.9414 39.1602 55.7227 35.2148C54.9805 35.0586 54.1699 34.8437 53.291 34.5703C52.4121 34.2969 51.7773 34.1113 51.3867 34.0137C50.9961 33.916 50.2246 33.8184 49.0723 33.7207C47.9199 33.623 46.7188 33.6914 45.4688 33.9258C45 33.9648 44.6973 33.6621 44.5605 33.0176C44.4238 32.373 44.3555 31.709 44.3555 31.0254C44.3555 30.3418 44.2773 29.9805 44.1211 29.9414C43.2617 29.7852 41.5234 29.9316 38.9062 30.3809C36.2891 30.8301 34.5508 30.9766 33.6914 30.8203C33.1836 31.2891 31.5234 32.7539 28.7109 35.2148ZM32.168 5.85938C32.0508 6.64062 31.8457 7.8125 31.5527 9.375C31.2598 10.9375 31.0352 12.1289 30.8789 12.9492C31.0742 12.9102 31.3965 12.8613 31.8457 12.8027C32.2949 12.7441 32.6172 12.7148 32.8125 12.7148C32.6953 12.6367 32.5586 12.5586 32.4023 12.4805C32.9883 12.2852 33.418 12.1289 33.6914 12.0117C33.0273 9.27734 32.5195 7.22656 32.168 5.85938ZM38.9648 5.33203C38.8867 5.76172 38.8477 6.36719 38.8477 7.14844C38.8477 7.92969 38.6523 8.96484 38.2617 10.2539C38.3008 10.332 38.3789 10.4102 38.4961 10.4883C39.2773 10.4102 40.5859 10.2734 42.4219 10.0781C42.4219 9.25781 42.832 8.4375 43.6523 7.61719C42.168 6.71875 40.6055 5.95703 38.9648 5.33203ZM46.2891 9.43359C46.2109 9.58984 46.0742 9.80469 45.8789 10.0781C46.6211 10.1953 47.1094 10.293 47.3438 10.3711C46.875 9.94141 46.5234 9.62891 46.2891 9.43359ZM47.8711 10.8398C47.7539 11.0742 47.5684 11.4258 47.3145 11.8945C47.0605 12.3633 46.875 12.7148 46.7578 12.9492C45.625 12.9883 44.1016 13.0469 42.1875 13.125L41.9531 11.1328C41.875 11.1719 41.7383 11.2207 41.543 11.2793C41.3477 11.3379 41.1914 11.3672 41.0742 11.3672V14.2383C40.2539 14.3164 38.9941 14.4336 37.2949 14.5898C35.5957 14.7461 34.3359 14.8633 33.5156 14.9414C33.2422 15.332 32.9492 15.7617 32.6367 16.2305C33.6914 18.4961 34.4922 20.1953 35.0391 21.3281C34.2578 21.5234 32.6562 21.9531 30.2344 22.6172V24.6094C30.2344 24.6875 30.2637 24.8047 30.3223 24.9609C30.3809 25.1172 30.4297 25.2344 30.4688 25.3125C31.1328 25.625 32.168 26.0937 33.5742 26.7188C34.9805 27.3438 36.0352 27.832 36.7383 28.1836L38.0273 26.6016C37.9883 26.2109 37.8906 25.5957 37.7344 24.7559C37.5781 23.916 37.4609 23.2813 37.3828 22.8516C37.5 22.7734 37.6855 22.666 37.9395 22.5293C38.1934 22.3926 38.3789 22.2852 38.4961 22.207C39.5508 21.8945 40.3516 21.6797 40.8984 21.5625C41.4063 22.3828 42.1191 23.5547 43.0371 25.0781C43.9551 26.6016 44.5312 27.5586 44.7656 27.9492C45.1172 27.6367 45.6055 27.1582 46.2305 26.5137C46.8555 25.8691 47.3242 25.3906 47.6367 25.0781C45.5273 23.5937 44.1406 22.6367 43.4766 22.207C43.5156 21.8945 43.5938 21.4453 43.7109 20.8594H45.8789C48.0664 22.7344 50.3125 24.6484 52.6172 26.6016C52.6563 26.6016 52.6953 26.5723 52.7344 26.5137C52.7734 26.4551 52.8125 26.4258 52.8516 26.4258C52.6953 26.1133 52.1875 25.1563 51.3281 23.5547C51.3281 23.5156 51.3867 23.4375 51.5039 23.3203L51.7383 23.0859H54.1406C54.1797 23.0469 54.5117 22.8711 55.1367 22.5586C53.8086 18.0273 51.3867 14.1211 47.8711 10.8398Z" fill="#EA5A47"/>
</svg>
