<?xml version="1.0" standalone="no"?>
<svg viewBox="0 0 200 200" xmlns="http://www.w3.org/2000/svg">
  <path fill="#FDCB6E" d="M40.2,-69.8C53.9,-61.7,68.1,-54.6,75.7,-43.2C83.3,-31.7,84.2,-15.9,84.1,-0.1C83.9,15.7,82.8,31.4,76.7,45.5C70.7,59.6,59.8,72.2,46.2,76.4C32.6,80.6,16.3,76.4,2.4,72.2C-11.5,68,-22.9,63.8,-36.7,59.7C-50.5,55.6,-66.5,51.6,-73.2,41.7C-79.8,31.8,-77,15.9,-76.9,0.1C-76.8,-15.8,-79.4,-31.6,-74,-43.6C-68.6,-55.7,-55.2,-64,-41.5,-72.1C-27.8,-80.3,-13.9,-88.4,-0.3,-87.8C13.2,-87.2,26.4,-77.9,40.2,-69.8Z" transform="translate(100 100)" />
</svg>
