<svg width="50" height="50" viewBox="0 0 50 50" fill="none" xmlns="http://www.w3.org/2000/svg">
<path d="M50 5.93091C48.1613 6.93316 46.186 7.61035 44.1095 7.91645C46.2521 6.33938 47.8551 3.85725 48.6193 0.933223C46.6063 2.40406 44.4031 3.43937 42.1056 3.99414C40.5606 1.9649 38.5142 0.619888 36.2841 0.167923C34.054 -0.284042 31.7649 0.182327 29.7724 1.49462C27.7798 2.80692 26.1952 4.89172 25.2646 7.42535C24.3339 9.95899 24.1093 12.7997 24.6256 15.5064C20.5467 15.2545 16.5565 13.9504 12.9138 11.6787C9.27116 9.40698 6.05752 6.21848 3.48146 2.32012C2.60063 4.18917 2.09416 6.35619 2.09416 8.66407C2.09318 10.7417 2.5091 12.7875 3.30503 14.6199C4.10095 16.4524 5.25227 18.0149 6.65683 19.1687C5.02791 19.1049 3.43494 18.5635 2.01048 17.5895V17.752C2.01032 20.6659 2.82972 23.4902 4.32966 25.7456C5.82959 28.001 7.91767 29.5485 10.2396 30.1257C8.72849 30.6288 7.14423 30.7029 5.60645 30.3424C6.26155 32.8497 7.53765 35.0422 9.25607 36.613C10.9745 38.1838 13.0492 39.0543 15.1898 39.1026C11.5561 42.6116 7.06837 44.5149 2.44869 44.5066C1.63036 44.5069 0.812729 44.4481 0 44.3305C4.68924 48.0393 10.1478 50.0076 15.7227 50C34.5944 50 44.911 30.7731 44.911 14.0979C44.911 13.5561 44.9 13.0089 44.8802 12.4672C46.8869 10.682 48.6191 8.47146 49.9956 5.93904L50 5.93091V5.93091Z" fill="#FDCB6E"/>
</svg>
